Coordinates
version=1
nRows=33
nColumns=21
inDegrees=yes

Units are S.I. units (second, meters, Newtons, ...)
If the header above contains a line with 'inDegrees', this indicates whether rotational values are in degrees (yes) or radians (no).

endheader
time	sternoclavicular_r2	sternoclavicular_r3	unrotscap_r3	unrotscap_r2	acromioclavicular_r2	acromioclavicular_r3	acromioclavicular_r1	unrothum_r1	unrothum_r3	unrothum_r2	elv_angle	shoulder_elev	shoulder1_r2	shoulder_rot	elbow_flexion	pro_sup	deviation	flexion	wrist_hand_r1	wrist_hand_r3
      0.00000000	     -2.11955902	      0.89774516	     -0.89774516	      2.11955902	     -0.42916759	      3.46838147	      1.55901360	     -1.55901360	     -3.46838147	      0.42916759	     87.39211100	      8.75848871	    -87.39211100	     -2.86131723	     74.98646573	      0.00000000	      0.00000000	      0.00000000	      0.00000000	      0.00000000
      0.02040816	     -2.15023749	      0.91073912	     -0.91073912	      2.15023749	     -0.43537935	      3.51858279	      1.58157875	     -1.58157875	     -3.51858279	      0.43537935	     91.02369280	      8.88525898	    -91.02369280	     -3.51230983	     74.96299612	      0.00000000	      0.00000000	      0.00000000	      0.00000000	      0.00000000
      0.04081633	     -2.21158366	      0.93672246	     -0.93672246	      2.21158366	     -0.44780070	      3.61896777	      1.62670111	     -1.62670111	     -3.61896777	      0.44780070	     95.91986476	      9.13875496	    -95.91986476	     -4.42879515	     74.92600945	      0.00000000	      0.00000000	      0.00000000	      0.00000000	      0.00000000
      0.06122449	     -2.26401513	      0.95892995	     -0.95892995	      2.26401513	     -0.45841701	      3.70476502	      1.66526638	     -1.66526638	     -3.70476502	      0.45841701	     98.87918981	      9.35541344	    -98.87918981	     -5.01323622	     74.87620834	      0.00000000	      0.00000000	      0.00000000	      0.00000000	      0.00000000
      0.08163265	     -2.30167913	      0.97488265	     -0.97488265	      2.30167913	     -0.46604320	      3.76639725	      1.69296964	     -1.69296964	     -3.76639725	      0.46604320	    100.40395074	      9.51104948	   -100.40395074	     -5.33845446	     74.78513510	      0.00000000	      0.00000000	      0.00000000	      0.00000000	      0.00000000
      0.10204082	     -2.34496212	      0.99321528	     -0.99321528	      2.34496212	     -0.47480713	      3.83722421	      1.72480587	     -1.72480587	     -3.83722421	      0.47480713	    101.69276207	      9.68990441	   -101.69276207	     -5.63358733	     74.64045041	      0.00000000	      0.00000000	      0.00000000	      0.00000000	      0.00000000
      0.12244898	     -2.38514593	      1.01023524	     -1.01023524	      2.38514593	     -0.48294353	      3.90297976	      1.75436254	     -1.75436254	     -3.90297976	      0.48294353	    102.34252265	      9.85595284	   -102.34252265	     -5.80691648	     74.42438960	      0.00000000	      0.00000000	      0.00000000	      0.00000000	      0.00000000
      0.14285714	     -2.43119539	      1.02973962	     -1.02973962	      2.43119539	     -0.49226761	      3.97833368	      1.78823361	     -1.78823361	     -3.97833368	      0.49226761	    102.74090664	     10.04623941	   -102.74090664	     -5.94231815	     74.12282144	      0.00000000	      0.00000000	      0.00000000	      0.00000000	      0.00000000
      0.16326531	     -2.48665696	      1.05323052	     -1.05323052	      2.48665696	     -0.50349745	      4.06908929	      1.82902763	     -1.82902763	     -4.06908929	      0.50349745	    102.99760890	     10.27541893	   -102.99760890	     -6.06527495	     73.72311389	      0.00000000	      0.00000000	      0.00000000	      0.00000000	      0.00000000
      0.18367347	     -2.55371433	      1.08163286	     -1.08163286	      2.55371433	     -0.51707521	      4.17881993	      1.87835080	     -1.87835080	     -4.17881993	      0.51707521	    103.16068908	     10.55251491	   -103.16068908	     -6.18803381	     73.21550952	      0.00000000	      0.00000000	      0.00000000	      0.00000000	      0.00000000
      0.20408163	     -2.63414566	      1.11569978	     -1.11569978	      2.63414566	     -0.53336091	      4.31043529	      1.93751100	     -1.93751100	     -4.31043529	      0.53336091	    103.26401607	     10.88487502	   -103.26401607	     -6.32023915	     72.59186724	      0.00000000	      0.00000000	      0.00000000	      0.00000000	      0.00000000
      0.22448980	     -2.72935281	      1.15602503	     -1.15602503	      2.72935281	     -0.55263842	      4.46622936	      2.00753936	     -2.00753936	     -4.46622936	      0.55263842	    103.32967541	     11.27829212	   -103.32967541	     -6.46934305	     71.84552054	      0.00000000	      0.00000000	      0.00000000	      0.00000000	      0.00000000
      0.24489796	     -2.84044525	      1.20307855	     -1.20307855	      2.84044525	     -0.57513239	      4.64801763	      2.08925194	     -2.08925194	     -4.64801763	      0.57513239	    103.37146977	     11.73735078	   -103.37146977	     -6.64141138	     70.97107853	      0.00000000	      0.00000000	      0.00000000	      0.00000000	      0.00000000
      0.26530612	     -2.96828463	      1.25722527	     -1.25722527	      2.96828463	     -0.60101726	      4.85721006	      2.18328249	     -2.18328249	     -4.85721006	      0.60101726	    103.39655135	     12.26561146	   -103.39655135	     -6.84145037	     69.96425735	      0.00000000	      0.00000000	      0.00000000	      0.00000000	      0.00000000
      0.28571429	     -3.11998906	      1.32148011	     -1.32148011	      3.11998906	     -0.63173432	      5.10545455	      2.29486668	     -2.29486668	     -5.10545455	      0.63173432	    103.40390949	     12.89248788	   -103.40390949	     -7.09283497	     68.78928647	      0.00000000	      0.00000000	      0.00000000	      0.00000000	      0.00000000
      0.30612245	     -3.28084573	      1.38961140	     -1.38961140	      3.28084573	     -0.66430452	      5.36867547	      2.41318268	     -2.41318268	     -5.36867547	      0.66430452	    103.37934731	     13.55718336	   -103.37934731	     -7.35000395	     67.51498144	      0.00000000	      0.00000000	      0.00000000	      0.00000000	      0.00000000
      0.32653061	     -3.46090056	      1.46587413	     -1.46587413	      3.46090056	     -0.70076196	      5.66331170	      2.54561963	     -2.54561963	     -5.66331170	      0.70076196	    103.40290153	     14.30120995	   -103.40290153	     -7.66492090	     66.10657740	      0.00000000	      0.00000000	      0.00000000	      0.00000000	      0.00000000
      0.34693878	     -3.66248039	      1.55125384	     -1.55125384	      3.66248039	     -0.74157778	      5.99317076	      2.69388901	     -2.69388901	     -5.99317076	      0.74157778	    103.38931106	     15.13418258	   -103.38931106	     -8.03024964	     64.54134133	      0.00000000	      0.00000000	      0.00000000	      0.00000000	      0.00000000
      0.36734694	     -3.88192291	      1.64419933	     -1.64419933	      3.88192291	     -0.78601043	      6.35225978	      2.85529705	     -2.85529705	     -6.35225978	      0.78601043	    103.33248566	     16.04096782	   -103.33248566	     -8.43709137	     62.83690432	      0.00000000	      0.00000000	      0.00000000	      0.00000000	      0.00000000
      0.38775510	     -4.11994419	      1.74501391	     -1.74501391	      4.11994419	     -0.83420489	      6.74175050	      3.03037045	     -3.03037045	     -6.74175050	      0.83420489	    103.23419298	     17.02452461	   -103.23419298	     -8.89268104	     60.98904608	      0.00000000	      0.00000000	      0.00000000	      0.00000000	      0.00000000
      0.40816327	     -4.37682722	      1.85381743	     -1.85381743	      4.37682722	     -0.88621848	      7.16210602	      3.21931736	     -3.21931736	     -7.16210602	      0.88621848	    103.09356598	     18.08602234	   -103.09356598	     -9.40082489	     58.99491309	      0.00000000	      0.00000000	      0.00000000	      0.00000000	      0.00000000
      0.42857143	     -4.65418313	      1.97129231	     -1.97129231	      4.65418313	     -0.94237741	      7.61596274	      3.42332284	     -3.42332284	     -7.61596274	      0.94237741	    102.90400124	     19.23211858	   -102.90400124	     -9.96762693	     56.84258611	      0.00000000	      0.00000000	      0.00000000	      0.00000000	      0.00000000
      0.44897959	     -4.95031718	      2.09672071	     -2.09672071	      4.95031718	     -1.00233853	      8.10054743	      3.64114032	     -3.64114032	     -8.10054743	      1.00233853	    102.65367790	     20.45581025	   -102.65367790	    -10.59285794	     54.54183749	      0.00000000	      0.00000000	      0.00000000	      0.00000000	      0.00000000
      0.46938776	     -5.26453081	      2.22980678	     -2.22980678	      5.26453081	     -1.06596040	      8.61471699	      3.87225600	     -3.87225600	     -8.61471699	      1.06596040	    102.30189941	     21.75421077	   -102.30189941	    -11.25472876	     52.07793239	      0.00000000	      0.00000000	      0.00000000	      0.00000000	      0.00000000
      0.48979592	     -5.59492248	      2.36974509	     -2.36974509	      5.59492248	     -1.13285799	      9.15535980	      4.11527122	     -4.11527122	     -9.15535980	      1.13285799	    101.87112844	     23.11946254	   -101.87112844	    -11.95645653	     49.46343614	      0.00000000	      0.00000000	      0.00000000	      0.00000000	      0.00000000
      0.51020408	     -5.94548749	      2.51822789	     -2.51822789	      5.94548749	     -1.20384028	      9.72901365	      4.37312468	     -4.37312468	     -9.72901365	      1.20384028	    101.37807910	     24.56807504	   -101.37807910	    -12.72451554	     46.67875143	      0.00000000	      0.00000000	      0.00000000	      0.00000000	      0.00000000
      0.53061224	     -6.31381066	      2.67423220	     -2.67423220	      6.31381066	     -1.27841823	     10.33172640	      4.64403991	     -4.64403991	    -10.33172640	      1.27841823	    100.79085508	     26.09006821	   -100.79085508	    -13.55188214	     43.72545110	      0.00000000	      0.00000000	      0.00000000	      0.00000000	      0.00000000
      0.55102041	     -6.70576747	      2.84024660	     -2.84024660	      6.70576747	     -1.35778151	     10.97311253	      4.93233856	     -4.93233856	    -10.97311253	      1.35778151	    100.09684922	     27.70972081	   -100.09684922	    -14.42128663	     40.55493407	      0.00000000	      0.00000000	      0.00000000	      0.00000000	      0.00000000
      0.57142857	     -7.11235389	      3.01245742	     -3.01245742	      7.11235389	     -1.44010699	     11.63843810	      5.23139783	     -5.23139783	    -11.63843810	      1.44010699	     99.23060737	     29.38982625	    -99.23060737	    -15.23788616	     37.16260051	      0.00000000	      0.00000000	      0.00000000	      0.00000000	      0.00000000
      0.59183673	     -7.53439796	      3.19121537	     -3.19121537	      7.53439796	     -1.52556232	     12.32905808	      5.54182676	     -5.54182676	    -12.32905808	      1.52556232	     98.19146976	     31.13380608	    -98.19146976	    -15.95116903	     33.52158336	      0.00000000	      0.00000000	      0.00000000	      0.00000000	      0.00000000
      0.61224490	     -7.97909629	      3.37956860	     -3.37956860	      7.97909629	     -1.61560469	     13.05674882	      5.86891874	     -5.86891874	    -13.05674882	      1.61560469	     96.97579045	     32.97139839	    -96.97579045	    -16.50437717	     29.55322820	      0.00000000	      0.00000000	      0.00000000	      0.00000000	      0.00000000
      0.63265306	     -8.44974998	      3.57891528	     -3.57891528	      8.44974998	     -1.71090249	     13.82691210	      6.21510183	     -6.21510183	    -13.82691210	      1.71090249	     95.48360137	     34.91624397	    -95.48360137	    -16.62476425	     25.11658016	      0.00000000	      0.00000000	      0.00000000	      0.00000000	      0.00000000
      0.65306122	     -8.97704536	      3.80225272	     -3.80225272	      8.97704536	     -1.81766908	     14.68976211	      6.60294697	     -6.60294697	    -14.68976211	      1.81766908	     93.81776648	     37.09514560	    -93.81776648	    -16.36122781	     20.02197615	      0.00000000	      0.00000000	      0.00000000	      0.00000000	      0.00000000
